<?xml version="1.0" encoding="UTF-8"?>
<svg id="LitiVest_Logo" data-name="LitiVest Logo" xmlns="http://www.w3.org/2000/svg" viewBox="0 0 325.98 64.04">
  <defs>
    <style>
      .cls-1 {
        fill: #eae2dd;
        stroke-width: 0px;
      }
    </style>
  </defs>
  <path id="Tagline" class="cls-1" d="M50.31,54.42h1.73v7.97h5.01v1.42h-6.74v-9.39ZM66.11,54.42h1.73v9.39h-1.73v-9.39ZM76.89,54.42h7.98v1.42h-3.14v7.97h-1.73v-7.97h-3.12v-1.42ZM93.89,54.42h1.73v9.39h-1.73v-9.39ZM114.21,63.82h-1.1l-.26-1.1c-.46.5-.92.85-1.38,1.04-.46.19-.99.29-1.59.29-.74,0-1.4-.13-1.98-.39-.59-.26-1.08-.61-1.49-1.06s-.72-.97-.93-1.57c-.22-.6-.33-1.23-.33-1.91s.11-1.3.33-1.89c.22-.6.53-1.12.93-1.57.41-.45.9-.8,1.49-1.07.58-.26,1.25-.39,1.98-.39.53,0,1.04.07,1.53.2.48.14.91.34,1.29.61.38.27.69.6.94,1.01.25.4.41.87.47,1.39h-1.69c-.05-.31-.15-.58-.3-.81-.15-.23-.34-.43-.57-.59-.23-.16-.49-.28-.77-.35-.29-.08-.58-.12-.9-.12-.52,0-.98.1-1.36.3-.38.2-.69.47-.93.81-.24.34-.42.72-.53,1.15-.12.43-.17.87-.17,1.32s.06.89.17,1.32c.11.43.29.81.53,1.15.24.34.55.61.93.81.38.2.84.3,1.36.3.44,0,.83-.05,1.17-.16.34-.12.63-.29.86-.51s.41-.5.53-.82.18-.68.19-1.08h-2.62v-1.25h4.2v4.95ZM126.6,54.42h1.84l3.8,9.39h-1.85l-.93-2.49h-3.94l-.93,2.49h-1.78l3.78-9.39ZM125.99,60.08h3.01l-1.48-4.04h-.04l-1.49,4.04ZM138.83,54.42h7.98v1.42h-3.14v7.97h-1.73v-7.97h-3.12v-1.42ZM155.84,54.42h1.73v9.39h-1.73v-9.39ZM171.75,54.2c.74,0,1.4.13,1.98.39.59.26,1.08.62,1.49,1.07.41.45.72.97.93,1.57.22.6.33,1.23.33,1.89s-.11,1.31-.33,1.91c-.22.6-.53,1.12-.93,1.57s-.9.8-1.49,1.06c-.58.26-1.25.39-1.98.39s-1.4-.13-1.98-.39c-.58-.26-1.08-.61-1.49-1.06-.41-.45-.72-.97-.93-1.57-.22-.6-.33-1.23-.33-1.91s.11-1.3.33-1.89c.22-.6.53-1.12.93-1.57.41-.45.9-.8,1.49-1.07.58-.26,1.25-.39,1.98-.39ZM171.75,55.54c-.52,0-.98.1-1.36.3-.38.2-.69.47-.93.81-.24.34-.42.72-.53,1.15-.12.43-.17.87-.17,1.32s.06.89.17,1.32c.11.43.29.81.53,1.15.24.34.55.61.93.81.38.2.84.3,1.36.3s.98-.1,1.36-.3c.38-.2.69-.47.93-.81.24-.34.42-.72.53-1.15.11-.43.17-.87.17-1.32s-.06-.89-.17-1.32c-.12-.43-.29-.81-.53-1.15-.24-.34-.55-.61-.93-.81-.38-.2-.84-.3-1.36-.3ZM185.85,54.42h1.82l4.5,6.92h.03v-6.92h1.64v9.39h-1.82l-4.49-6.91h-.04v6.91h-1.64v-9.39ZM215.48,54.42h6.81v1.42h-5.08v2.46h4.46v1.34h-4.46v4.17h-1.73v-9.39ZM231.43,54.42h1.73v5.47c0,.32.02.64.05.96.03.32.12.62.28.87.15.26.38.47.69.64.31.17.74.25,1.31.25s1-.08,1.31-.25c.31-.17.54-.38.69-.64.15-.26.24-.55.28-.87s.05-.64.05-.96v-5.47h1.73v6.01c0,.6-.1,1.13-.29,1.58-.19.45-.47.82-.82,1.12-.35.3-.78.53-1.28.68-.5.15-1.05.22-1.66.22s-1.16-.07-1.66-.22c-.5-.15-.92-.37-1.28-.68-.35-.3-.63-.68-.82-1.12-.19-.45-.29-.97-.29-1.58v-6.01ZM249.32,54.42h1.82l4.5,6.92h.03v-6.92h1.64v9.39h-1.82l-4.49-6.91h-.04v6.91h-1.64v-9.39ZM267.24,54.42h4.09c.75,0,1.41.12,1.96.37.55.25,1,.58,1.35,1.01.35.43.61.92.78,1.49.17.57.26,1.18.26,1.83s-.09,1.26-.26,1.83c-.17.57-.43,1.07-.78,1.49-.35.42-.8.76-1.35,1.01-.55.25-1.21.37-1.96.37h-4.09v-9.39ZM268.96,62.47h1.7c.67,0,1.22-.08,1.65-.26.43-.17.76-.41,1.01-.71.24-.3.41-.66.5-1.07.09-.41.13-.85.13-1.32s-.04-.92-.13-1.32c-.09-.41-.25-.76-.5-1.07-.24-.3-.58-.54-1.01-.71-.43-.17-.98-.26-1.65-.26h-1.7v6.71Z"/>
  <path id="Logo" class="cls-1" d="M184.7,0h40.67v7h-33.67v7.44h33.67v7h-33.67v7.44h33.67v7h-40.67V0ZM7,0H0v35.89h40.67v-7H7V0ZM117.26,35.89h7V0h-7v35.89ZM50.31,35.89h7V0h-7v35.89ZM325.98,0h-40.67v7h16.83v28.89h7V7h16.83V0ZM66.95,7h16.83v28.89h7V7h16.83V0h-40.67v7ZM168.05,21.02l-13.58,7.5-13.57-7.5V0h-7v25.15l19.43,10.74h2.29l19.43-10.74V0h-7v21.02ZM235,21.45h33.67v7.44h-33.67v7h40.67V14.45h-33.67v-7.44h33.67V0h-40.67v21.45Z"/>
</svg>